<svg width="85px" height="72px" viewBox="0 0 85 72" version="1.1" xmlns="http://www.w3.org/2000/svg" xmlns:xlink="http://www.w3.org/1999/xlink">
    <!-- Generator: Sketch 49.1 (51147) - http://www.bohemiancoding.com/sketch -->
    <defs>
        <polygon id="path-1" points="22.7324405 23.0271257 22.7324405 1.13686838e-13 0 1.16723597e-13 0 23.0271257"/>
        <linearGradient x1="43.2203347%" y1="0%" x2="43.2203352%" y2="97.1753322%" id="linearGradient-3">
            <stop stop-color="#FFD152" offset="0%"/>
            <stop stop-color="#FFC72C" offset="100%"/>
        </linearGradient>
        <linearGradient x1="50%" y1="0%" x2="50%" y2="100%" id="linearGradient-4">
            <stop stop-color="#77F2FF" offset="0%"/>
            <stop stop-color="#D7F8FF" offset="100%"/>
        </linearGradient>
        <polygon id="path-5" points="3.1451543e-21 6.07351913e-15 3.1451543e-21 18.3906279 20.2829519 18.3906279 20.2829519 0 0 0"/>
    </defs>
    <g id="Wireframes---Mid" stroke="none" stroke-width="1" fill="none" fill-rule="evenodd">
        <g id="Artboard-Copy-2" transform="translate(-683.000000, -32.000000)">
            <g id="Propuesta-de-valor">
                <g id="envio" transform="translate(683.000000, 32.000000)">
                    
                    <g id="Truck" transform="translate(20.000000, 20.000000)">
                        <g id="Group-5" transform="translate(22.278857, 5.330571)">
                            <mask id="mask-2" fill="white">
                                <use xlink:href="#path-1"/>
                            </mask>
                            <g id="Clip-4"/>
                            <path d="M7.31489134,22.4437439 L3.74215174,22.4437439 C1.67671605,22.4437439 0,21.1938538 0,19.6548371 L0,2.78869309 C0,1.24967641 1.67671605,1.13686838e-13 3.74215174,1.13686838e-13 L10.9122305,1.13686838e-13 C12.2494261,1.13686838e-13 13.4169774,0.528462683 14.0804696,1.31869924 L14.0858073,1.31869924 L21.2206112,10.9806126 C21.2206112,10.9806126 22.7325565,12.5563845 22.7325565,14.8858514 L22.7325565,21.396221 C22.7325565,21.396221 22.60747,23.0271257 20.8414065,23.0271257 L16.924737,23.0271257 C16.924737,23.0271257 17.0493594,18.9567022 12.0797819,18.9567022 C12.0797819,18.9567022 7.69409605,18.3731068 7.31489134,22.4437439" id="Fill-3" fill="url(#linearGradient-3)" mask="url(#mask-2)"/>
                        </g>
                        <path d="M26.9038083,21.0607231 C26.9038083,22.6273061 25.456843,23.9000614 23.6756948,23.9000614 L3.22834561,23.9000614 C1.44719741,23.9000614 0,22.6273061 0,21.0607231 L0,2.83933832 C0,1.27254156 1.44719741,0 3.22834561,0 L23.6756948,0 C25.456843,0 26.9038083,1.27254156 26.9038083,2.83933832 L26.9038083,21.0607231 Z" id="Fill-1" fill="url(#linearGradient-3)"/>
                        <path d="M29.0325133,10.9068173 L32.5052301,15.9008217 C32.5052301,15.9008217 33.1988916,16.7784587 34.5261081,16.897913 C35.8533246,17.0126662 39.136439,16.897913 39.136439,16.897913 C39.136439,16.897913 41.6010376,17.0725002 40.0844508,15.0370748 C38.567632,13.001863 37.3051634,11.1961576 37.3051634,11.1961576 C37.3051634,11.1961576 36.9259587,10.3830559 35.7284701,10.3234355 C34.5261081,10.2683027 30.1053795,10.3234355 30.1053795,10.3234355 C30.1053795,10.3234355 28.6284769,10.3234355 29.0325133,10.9068173" id="Fill-6" fill="url(#linearGradient-4)"/>
                        <path d="M27.6619857,25.0880486 L27.6619857,28.2306172 L13.7711184,28.2306172 C13.7711184,28.2306172 13.8309928,24.2014365 9.41026425,24.2198141 C2.26014362,24.2471668 1.84102262,27.7068558 1.84102262,27.7068558 L0,27.7068558 C0,24.3713224 3.56252846,23.6362187 3.56252846,23.6362187 L26.3995171,23.6362187 C26.3995171,23.6362187 27.6619857,23.695839 27.6619857,25.0880486" id="Fill-8" fill="#343434"/>
                        <g id="Group-12" transform="translate(4.409357, 22.918919)" fill="#343434">
                            <path d="M9.97929819,4.93266537 C9.97929819,7.65722263 7.7442968,9.86557072 4.98685595,9.86557072 C2.23500139,9.86557072 0,7.65722263 0,4.93266537 C0,2.20834809 2.23500139,1.42108547e-14 4.98685595,1.42108547e-14 C7.7442968,1.42108547e-14 9.97929819,2.20834809 9.97929819,4.93266537" id="Fill-10"/>
                            <path d="M34.7279577,4.93266537 C34.7279577,7.65722263 32.4929563,9.86557072 29.7355155,9.86557072 C26.9836609,9.86557072 24.7486595,7.65722263 24.7486595,4.93266537 C24.7486595,2.20834809 26.9836609,1.42108547e-14 29.7355155,1.42108547e-14 C32.4929563,1.42108547e-14 34.7279577,2.20834809 34.7279577,4.93266537" id="Fill-10-Copy"/>
                        </g>
                        <path d="M11.5759859,27.8207939 C11.5759859,29.0178718 10.5953457,29.991335 9.37796705,29.991335 C8.16596879,29.991335 7.1850947,29.0178718 7.1850947,27.8207939 C7.1850947,26.6239471 8.16596879,25.6504839 9.37796705,25.6504839 C10.5953457,25.6504839 11.5759859,26.6239471 11.5759859,27.8207939" id="Fill-13" fill="#FEFEFE"/>
                        <path d="M36.3246454,27.8207939 C36.3246454,29.0178718 35.3440052,29.991335 34.1266266,29.991335 C32.9146283,29.991335 31.9337542,29.0178718 31.9337542,27.8207939 C31.9337542,26.6239471 32.9146283,25.6504839 34.1266266,25.6504839 C35.3440052,25.6504839 36.3246454,26.6239471 36.3246454,27.8207939" id="Fill-13-Copy" fill="#FEFEFE"/>
                        <path d="M26.6213778,9.70529303 C25.8680739,10.4587744 25.3292041,11.0791251 25.2890557,11.1203678 C23.6972778,12.7559737 21.6518002,15.6643348 21.5919258,15.6688224 L19.6859232,15.6780112 C22.2853552,9.59053991 26.3419638,6.86595471 26.3419638,6.86595471 C25.4737845,7.32539457 24.3712132,7.66538006 23.0240386,7.80791326 C22.2356919,7.89061244 21.7817602,7.87223484 20.988076,7.82158961 C20.0702335,7.75726803 19.5413427,7.56900454 18.6631844,7.46792777 C17.9595439,7.38971615 17.5404229,7.35296096 16.8467614,7.47711657 C15.3350481,7.75278048 14.0326633,8.60263737 13.5687525,9.85701503 C13.5687525,9.85701503 13.4689618,10.1878117 13.4940255,10.4863408 C13.6037953,11.8097413 14.9159271,12.2046459 16.1883747,12.2369135 C18.6631844,12.2965338 20.1800033,9.92133661 20.010359,9.9672806 C19.8855046,9.99933454 18.678037,11.9336832 16.5675794,12.1174591 C16.2331645,12.1450255 15.8987496,12.1082703 15.5645667,12.0576251 C13.7483758,11.7680711 13.5239627,10.7758947 13.7033539,9.91663536 C13.713565,9.87069138 14.272393,8.16157511 16.7420972,7.78034687 C17.1113228,7.72051285 17.5555075,7.6976477 18.0396085,7.76196928 C18.9973673,7.88142364 19.5710478,8.14319751 20.5740605,8.23508549 C20.9931815,8.27632823 21.2326792,8.29940707 21.6518002,8.29470582 C22.0110468,8.29021827 22.2157338,8.27184067 22.5747483,8.22589669 C23.1437874,8.15708756 23.6726782,8.02374315 24.0119666,7.95023277 C23.2134089,8.47399421 21.3923444,9.68242788 19.7109869,11.8417952 C17.6151499,14.5386003 17.0465749,15.6919012 16.9665102,15.6919012 L15.0955504,15.70109 L15.0955504,16.0639407 L16.7472027,16.0547519 C16.0484357,17.0794096 12.7502366,23.7229099 8.73377639,23.7688539 C6.88277469,23.7870178 6.00972199,23.0933705 6.00972199,23.0933705 C5.77509778,22.9739161 5.460641,22.6843622 5.43070378,22.7948414 C5.41097771,22.8728394 6.64838255,23.9342523 8.58409032,23.9801963 C9.02827503,23.9893851 9.27775181,24.0030614 9.71683095,23.975495 C12.3661583,23.8009079 14.3870363,22.3354016 15.7889798,21.1545343 C18.0194183,19.2755321 19.4812362,16.0500506 19.4912153,16.0500506 L21.3176174,16.0408618 C20.6190824,17.15292 19.4863418,18.765447 19.3566138,20.217277 C19.3166975,20.6628268 19.2818868,20.8008724 19.3614873,21.3017687 C19.665965,23.2540676 20.9632443,23.8009079 21.9161296,23.8468518 C23.0586172,23.9021983 24.0467774,22.9739161 24.0467774,22.9279721 C24.0416718,22.7535987 23.3579894,23.4656236 22.3452297,23.598968 C22.0059412,23.6446983 21.4870295,23.3369805 21.3972179,22.9004057 C21.2876802,22.3766443 21.3076383,22.1330343 21.3874709,21.7518061 C21.8163389,19.6614616 23.7724689,16.0500506 23.7374261,16.0179967 C23.7225736,16.0088079 24.2412532,16.0135091 24.7304598,16.0135091 L24.7304598,15.6504448 L23.9321341,15.655146 C24.3712132,14.6811335 25.4338683,13.0408264 26.6213778,11.4144093 L26.6213778,9.70529303 Z" id="Fill-20" fill="#343434"/>
                        <g id="Group-24" transform="translate(0.000000, 0.201940)">
                            <mask id="mask-6" fill="white">
                                <use xlink:href="#path-5"/>
                            </mask>
                            <g id="Clip-23"/>
                            <path d="M0,18.3118402 C0.00997907131,18.3118402 0.0248316426,18.3163278 0.0348107139,18.3163278 C0.129727927,18.3302178 0.224413069,18.3394066 0.319330282,18.3438941 C0.977948989,18.4039419 1.3571537,18.4084294 2.04060405,18.3438941 C5.86258836,17.9902323 9.72448896,16.1663629 11.9748856,11.4202423 C12.9876453,9.27925261 13.9108254,6.95470062 14.2751775,6.14138522 C16.2408225,1.75362774 17.3037097,0.931337238 17.3635841,0.958903629 C18.1368461,1.3815883 18.9052346,2.34171075 19.0648997,3.14583735 C19.1846486,3.73840792 19.1598169,4.09677101 19.0449416,4.68955527 C18.6608634,6.77071098 17.1739817,8.67749324 15.0233758,8.6362505 C14.0753641,8.6178729 13.9407626,8.37426293 13.9208045,8.47982725 C13.9156989,8.49371729 14.5443804,8.74181482 15.1282721,8.74181482 C17.5132702,8.72792478 19.5039788,7.37268404 19.943058,5.19942667 C20.0579333,4.62972125 20.0679124,4.28054695 19.9630161,3.70635398 C19.6037696,1.72606135 17.6279134,0.706104861 17.6378925,0.692428512 C17.9421381,0.416764597 18.4960926,0.173154626 19.0400681,0.168667074 C19.8831836,0.154777032 20.2424301,0.67853847 20.2774729,0.646484526 C20.3473264,0.572974149 19.7434766,0.0584015085 19.1099216,0.0492127113 C18.2765531,0.0400239142 17.9472437,0.246665004 17.3935213,0.545407758 C17.3935213,0.545407758 16.6051747,0.154777032 15.7170373,0.0631027535 C15.0185023,-0.0151088687 14.6142339,-0.0198101138 13.9108254,0.0445114663 C10.293296,0.370606919 7.05497135,3.98650544 6.55114428,5.79221093 C6.54627078,5.80610097 5.2190543,4.76306565 3.38290517,4.76306565 C2.28520733,4.76306565 1.12252949,5.02483952 0.0199581426,5.49346818 L0.00997907131,5.94842048 C1.47179698,5.11223994 2.96865768,4.9376528 3.74702524,4.98359678 C5.37871944,5.07548475 6.46643821,5.97128563 6.45645914,6.06787485 C6.45645914,6.06787485 6.22183493,7.08783133 6.30677307,7.87336664 C6.42141635,8.91191441 6.75559921,9.34827543 6.80572664,9.32989784 C6.89043271,9.30233144 6.66601964,8.9760223 6.60127171,8.74181482 C6.46133264,8.21805338 6.40656378,7.87806789 6.45158564,7.3679828 C6.48129078,6.94999937 6.54627078,6.49504707 6.61101871,6.23776075 L6.79574756,6.55936865 C6.79574756,6.56855744 7.38451277,7.41862803 7.47432441,8.4661509 C7.52421977,9.03115508 7.55903048,9.36195178 7.45947184,9.92246841 C7.18469927,11.4110535 6.371521,13.216759 4.96470401,14.5352446 C3.73217267,15.6885455 2.25016455,16.088365 2.2302064,16.1112301 C2.00579333,16.3407364 2.82407718,16.0330185 2.82407718,16.0330185 C2.82895068,16.0330185 7.1649732,14.576701 7.98813055,9.97311364 C8.08304776,9.44913851 8.08304776,9.1093667 8.00808869,8.56701398 C7.76371748,6.78460102 6.68597778,6.02641841 6.71080942,5.90696405 C7.00530806,4.52415692 10.5228147,0.168667074 15.0085233,0.379795716 C15.7718062,0.416764597 16.5752375,0.540706513 17.0642119,0.811882875 C16.6151537,1.02771276 14.6690028,2.73682903 13.4965779,4.36324613 C10.4928774,8.53966128 9.62469825,12.5045204 6.10719164,15.9503193 C5.10928451,16.9288194 3.08353304,18.1099004 1.04780249,18.0545539 C0.683450349,18.0453651 0.339288425,18.0177987 0.00997907131,17.976556 L0,18.3118402 Z" id="Fill-22" fill="#343434" mask="url(#mask-6)"/>
                        </g>
                    </g>
                </g>
            </g>
        </g>
    </g>
</svg>
